# xmcd CD database file
#
# Track frame offsets:
#	150
#	15100
#	26788
#	43263
#	58885
#	72713
#	86208
#	99450
#	112773
#	126510
#	140355
#	154045
#	167193
#	180750
#	192055
#	206190
#	218925
#	232513
#	247533
#	259550
#	273130
#	285958
#
# Disc length: 3961 seconds
#
# Revision: 4
# Processed by: cddbd v1.5.1PL0 Copyright (c) Steve Scherf et al.
# Submitted via: CDex 1.51
#
DISCID=280f7716
DTITLE=Various Artist - The 1st Note in Black Music  [disc 1]
DYEAR=1992
DGENRE=Blues
TTITLE0=Beale St. Blues - ''Fats'' Waller and Alberta Hunter (1927)
TTITLE1=Statesboro Blues - Blind Willie McTell (1928)
TTITLE2=Canned Heat Blues - Tommy Johnson (1928)
TTITLE3=Old Dog Blue - Jim Jackson (1928)
TTITLE4=Death's Black Train is Coming - Rev. J.M. Gates (1926)
TTITLE5=Sometimes I Feel like a Motherless Child - Paul Robeson (1926)
TTITLE6=Walk Right In - Cannon's Jug Stompers (1929)
TTITLE7=Bumble Bee Blues - The Memphis Jug Band w-Memphis Minnie (1930)
TTITLE8=Milk Cow Blues - Sleepy John Estes (1930)
TTITLE9=Sun Gonna Shine in My Door Someday - Big Bill Broonzy (1935)
TTITLE10=Good Morning, School Girl - Sonny Boy Williamson (I) 1937
TTITLE11=Rock It in Rhythm - Tampa Red and The Chicago Five (1938)
TTITLE12=Precious Lord, Take My Hand - The Heavenly Gospel Singers (1937)
TTITLE13=What a Time - The Golden Gate Jubilee Quartet (1939)
TTITLE14=Midnight Special - Leadbelly w-The Golden Gate Jubilee Quartet (1940)
TTITLE15=Baby, Please Don't Go - Big Joe Williams (1941)
TTITLE16=Why Don't You Do Right¿ - Lil Green (1941)
TTITLE17=He's a Jelly Roll Baker - Lonnie Johnson (1942)
TTITLE18=Lift Every Voice and Sing - The Southern Sons (1942)
TTITLE19=Chicago Breakdown - Big Maceo Merriweather (1945)
TTITLE20=I'm Her Honey Dripper - Roosevelt Sykes and His Original Honey Drippers (1947)
TTITLE21=My Baby Left Me - Arthur ''Big Boy'' Crudup (1950)
EXTD=YEAR: 1992
EXTT0=
EXTT1=
EXTT2=
EXTT3=
EXTT4=
EXTT5=
EXTT6=
EXTT7=
EXTT8=
EXTT9=
EXTT10=
EXTT11=
EXTT12=
EXTT13=
EXTT14=
EXTT15=
EXTT16=
EXTT17=
EXTT18=
EXTT19=
EXTT20=
EXTT21=
PLAYORDER=
